<svg width="32" height="32" viewBox="0 0 32 32" fill="none" xmlns="http://www.w3.org/2000/svg">
<path fill-rule="evenodd" clip-rule="evenodd" d="M26.3334 15.9999C26.3334 15.4476 25.8857 14.9999 25.3334 14.9999H6.66675C6.11446 14.9999 5.66675 15.4476 5.66675 15.9999C5.66675 16.5522 6.11446 16.9999 6.66675 16.9999H25.3334C25.8857 16.9999 26.3334 16.5522 26.3334 15.9999Z" fill="white"/>
<path fill-rule="evenodd" clip-rule="evenodd" d="M26.3334 9.33325C26.3334 8.78097 25.8857 8.33325 25.3334 8.33325H6.66675C6.11446 8.33325 5.66675 8.78097 5.66675 9.33325C5.66675 9.88554 6.11446 10.3333 6.66675 10.3333H25.3334C25.8857 10.3333 26.3334 9.88554 26.3334 9.33325Z" fill="white"/>
<path fill-rule="evenodd" clip-rule="evenodd" d="M26.3334 22.6666C26.3334 22.1143 25.8857 21.6666 25.3334 21.6666H6.66675C6.11446 21.6666 5.66675 22.1143 5.66675 22.6666C5.66675 23.2189 6.11446 23.6666 6.66675 23.6666H25.3334C25.8857 23.6666 26.3334 23.2189 26.3334 22.6666Z" fill="white"/>
</svg>
