<svg width="32" height="32" viewBox="0 0 32 32" fill="none" xmlns="http://www.w3.org/2000/svg">
<path fill-rule="evenodd" clip-rule="evenodd" d="M23.2261 22.9064C23.6166 22.5159 23.6166 21.8827 23.2261 21.4922L10.0268 8.29289C9.63626 7.90237 9.00309 7.90237 8.61257 8.29289C8.22204 8.68342 8.22204 9.31658 8.61257 9.70711L21.8119 22.9064C22.2024 23.297 22.8356 23.297 23.2261 22.9064Z" fill="white"/>
<path fill-rule="evenodd" clip-rule="evenodd" d="M22.9064 8.3068C22.5159 7.91627 21.8827 7.91627 21.4922 8.3068L8.29289 21.5061C7.90237 21.8966 7.90237 22.5298 8.29289 22.9203C8.68342 23.3109 9.31658 23.3109 9.70711 22.9203L22.9064 9.72101C23.297 9.33048 23.297 8.69732 22.9064 8.3068Z" fill="white"/>
</svg>
