<svg width="32" height="32" viewBox="0 0 32 32" fill="none" xmlns="http://www.w3.org/2000/svg">
<path d="M21.5078 4.24746C17.8679 3.63724 14.1321 3.63724 10.4922 4.24746C9.16241 4.4704 8.10339 5.49129 7.83676 6.81499C6.61527 12.8791 6.54862 19.1192 7.64031 25.208L8.08478 27.687C8.22183 28.4514 9.1537 28.7569 9.71672 28.2221L15.0817 23.1254C15.5963 22.6365 16.4037 22.6365 16.9183 23.1254L22.2833 28.2221C22.8463 28.7569 23.7782 28.4514 23.9152 27.687L24.3597 25.208C25.4514 19.1192 25.3847 12.8791 24.1632 6.81499C23.8966 5.49129 22.8376 4.4704 21.5078 4.24746Z" fill="#4A4A4A"/>
</svg>
