<svg width="32" height="32" viewBox="0 0 32 32" fill="none" xmlns="http://www.w3.org/2000/svg">
<path fill-rule="evenodd" clip-rule="evenodd" d="M27.5566 13.1008C28.0738 16.3412 28.0367 19.6459 27.4469 22.8739C27.2317 24.0516 26.2468 24.9344 25.0527 25.0198L22.8688 25.1761C18.2954 25.5033 13.7044 25.5033 9.13093 25.1761L7.11226 25.0316C5.82091 24.9392 4.75578 23.9846 4.52309 22.711C3.95288 19.5903 3.85526 16.4015 4.23351 13.2517L4.59682 10.2262C4.7722 8.76572 6.01117 7.66663 7.4821 7.66663H10.5375C11.8606 7.66663 12.9332 8.73921 12.9332 10.0623C12.9332 10.106 12.9686 10.1415 13.0123 10.1415L24.6295 10.1415C26.0437 10.1415 27.2482 11.169 27.4711 12.5655L27.5566 13.1008ZM12.9358 14.9358C13.3263 14.5453 13.9595 14.5453 14.35 14.9358L15.9999 16.5857L17.6498 14.9358C18.0404 14.5453 18.6735 14.5453 19.0641 14.9358C19.4546 15.3264 19.4546 15.9595 19.0641 16.35L17.4141 18L19.0641 19.6499C19.4546 20.0404 19.4546 20.6736 19.0641 21.0641C18.6735 21.4546 18.0404 21.4546 17.6498 21.0641L15.9999 19.4142L14.35 21.0641C13.9595 21.4546 13.3263 21.4546 12.9358 21.0641C12.5453 20.6736 12.5453 20.0404 12.9358 19.6499L14.5857 18L12.9358 16.35C12.5453 15.9595 12.5453 15.3263 12.9358 14.9358Z" fill="#4A4A4A"/>
</svg>
