<svg width="32" height="32" viewBox="0 0 32 32" fill="none" xmlns="http://www.w3.org/2000/svg">
<path d="M13.0001 12C13.0001 10.3432 14.3432 9.00004 16.0001 9.00004C17.6569 9.00004 19.0001 10.3432 19.0001 12C19.0001 13.6569 17.6569 15 16.0001 15C14.3432 15 13.0001 13.6569 13.0001 12Z" fill="#4A4A4A"/>
<path fill-rule="evenodd" clip-rule="evenodd" d="M15.7841 3.33337C11.5143 3.33337 7.95827 6.60835 7.6075 10.8637C7.41894 13.1514 8.12557 15.4229 9.57856 17.1999L14.3716 23.0617C15.2133 24.091 16.7869 24.091 17.6286 23.0617L22.4216 17.1999C23.8746 15.4229 24.5812 13.1514 24.3927 10.8637C24.0419 6.60835 20.4859 3.33337 16.2161 3.33337H15.7841ZM16.0001 7.00004C13.2387 7.00004 11.0001 9.23862 11.0001 12C11.0001 14.7615 13.2387 17 16.0001 17C18.7615 17 21.0001 14.7615 21.0001 12C21.0001 9.23862 18.7615 7.00004 16.0001 7.00004Z" fill="#4A4A4A"/>
<path d="M9.78063 20.4389C10.2746 20.6859 10.4748 21.2866 10.2278 21.7806L8.28478 25.6667H23.7154L21.7723 21.7806C21.5253 21.2866 21.7256 20.6859 22.2195 20.4389C22.7135 20.192 23.3142 20.3922 23.5612 20.8862L26.2278 26.2195C26.3828 26.5295 26.3663 26.8976 26.1841 27.1924C26.0019 27.4873 25.68 27.6667 25.3334 27.6667H6.66675C6.32017 27.6667 5.9983 27.4873 5.8161 27.1924C5.63389 26.8976 5.61733 26.5295 5.77232 26.2195L8.43899 20.8862C8.68598 20.3922 9.28665 20.192 9.78063 20.4389Z" fill="#4A4A4A"/>
</svg>
