<svg width="32" height="32" viewBox="0 0 32 32" fill="none" xmlns="http://www.w3.org/2000/svg">
<path fill-rule="evenodd" clip-rule="evenodd" d="M25.0004 14.6668L24.9922 14.9911L25.0004 15.3335L24.9925 15.66L25.0003 16.0001L24.7488 27.0045C24.7174 28.3739 23.6759 29.508 22.314 29.6555C18.117 30.11 13.8831 30.11 9.68612 29.6555C8.32425 29.508 7.28267 28.3739 7.25137 27.0045L6.9998 16.0001L7.00763 15.6577L6.99982 15.3335L7.00803 14.9925L6.99976 14.6668L7.22469 5.81151C7.22618 5.75299 7.22901 5.69479 7.23316 5.63693L7.24799 5.02071C7.2819 3.61177 8.358 2.44774 9.75994 2.30351C9.87662 2.29151 9.99332 2.27984 10.11 2.26851C10.2684 2.23172 10.4307 2.20489 10.5964 2.18874C14.1903 1.83845 17.8098 1.83845 21.4038 2.18874C21.5695 2.20489 21.7318 2.23171 21.8901 2.2685C22.0068 2.27983 22.1236 2.2915 22.2403 2.30351C23.6422 2.44774 24.7183 3.61177 24.7522 5.02071L24.7671 5.63833C24.7712 5.69572 24.774 5.75346 24.7755 5.81151L25.0004 14.6668ZM21.3334 23.6667C21.8857 23.6667 22.3334 23.219 22.3334 22.6667C22.3334 22.1144 21.8857 21.6667 21.3334 21.6667H10.6667C10.1145 21.6667 9.66675 22.1144 9.66675 22.6667C9.66675 23.219 10.1145 23.6667 10.6667 23.6667H21.3334ZM16.0001 28.9335C17.1047 28.9335 18.0001 28.038 18.0001 26.9335C18.0001 25.8289 17.1047 24.9335 16.0001 24.9335C14.8955 24.9335 14.0001 25.8289 14.0001 26.9335C14.0001 28.038 14.8955 28.9335 16.0001 28.9335Z" fill="#4A4A4A"/>
</svg>
