<svg width="32" height="32" viewBox="0 0 32 32" fill="none" xmlns="http://www.w3.org/2000/svg">
<path d="M12.3334 4C12.3334 3.44772 12.7811 3 13.3334 3H18.6667C19.219 3 19.6667 3.44772 19.6667 4V5H25.3334C25.8857 5 26.3334 5.44772 26.3334 6C26.3334 6.55228 25.8857 7 25.3334 7H6.66675C6.11446 7 5.66675 6.55228 5.66675 6C5.66675 5.44772 6.11446 5 6.66675 5H12.3334V4Z" fill="#4A4A4A"/>
<path fill-rule="evenodd" clip-rule="evenodd" d="M8.31994 10.593C8.35746 10.2554 8.64283 10 8.98253 10H23.0176C23.3573 10 23.6427 10.2554 23.6802 10.593L23.9471 12.9948C24.4281 17.3241 24.4281 21.6934 23.9471 26.0227L23.9208 26.2592C23.7456 27.8359 22.5236 29.0932 20.9524 29.3132C17.6669 29.7731 14.3333 29.7731 11.0477 29.3132C9.47658 29.0932 8.25455 27.8359 8.07935 26.2591L8.05308 26.0227C7.57204 21.6934 7.57204 17.3241 8.05308 12.9948L8.31994 10.593ZM14.3334 15.2C14.3334 14.6477 13.8857 14.2 13.3334 14.2C12.7811 14.2 12.3334 14.6477 12.3334 15.2L12.3334 24.5333C12.3334 25.0856 12.7811 25.5333 13.3334 25.5333C13.8857 25.5333 14.3334 25.0856 14.3334 24.5333L14.3334 15.2ZM19.6667 15.2C19.6667 14.6477 19.219 14.2 18.6667 14.2C18.1145 14.2 17.6667 14.6477 17.6667 15.2V24.5333C17.6667 25.0856 18.1145 25.5333 18.6667 25.5333C19.219 25.5333 19.6667 25.0856 19.6667 24.5333V15.2Z" fill="#4A4A4A"/>
</svg>
