<svg width="32" height="32" viewBox="0 0 32 32" fill="none" xmlns="http://www.w3.org/2000/svg">
<path d="M8.33333 9C8.33333 6.23858 10.5719 4 13.3333 4C16.0948 4 18.3333 6.23858 18.3333 9C18.3333 11.7614 16.0948 14 13.3333 14C10.5719 14 8.33333 11.7614 8.33333 9Z" fill="#4A4A4A"/>
<path d="M3 21.6667C3 18.9052 5.23858 16.6667 8 16.6667H8.45449C8.70048 16.6667 8.94492 16.7056 9.17876 16.7819L10.3328 17.1587C11.6148 17.5774 12.9625 17.7207 14.2895 17.5888C14.503 17.5676 14.6671 17.7894 14.5863 17.9882C14.2083 18.9178 14 19.9346 14 21C14 22.6696 14.5115 24.2198 15.3863 25.5023C15.5084 25.6814 15.391 25.9329 15.1744 25.9404C11.6813 26.0607 8.17933 25.8384 4.71903 25.2735C3.72784 25.1117 3 24.2554 3 23.251V21.6667Z" fill="#4A4A4A"/>
<path fill-rule="evenodd" clip-rule="evenodd" d="M16 21C16 22.2958 16.4108 23.4957 17.1093 24.4765C17.4984 25.0231 17.9769 25.5016 18.5235 25.8907C19.5043 26.5892 20.7042 27 22 27C25.3137 27 28 24.3137 28 21C28 19.7042 27.5892 18.5043 26.8907 17.5235C26.5016 16.9769 26.0231 16.4984 25.4765 16.1093C24.4957 15.4108 23.2958 15 22 15C18.6863 15 16 17.6863 16 21ZM22 25C21.2582 25 20.5635 24.7981 19.968 24.4462L25.4462 18.968C25.7981 19.5635 26 20.2582 26 21C26 23.2091 24.2091 25 22 25ZM18.5538 23.032L24.032 17.5538C23.4365 17.2019 22.7418 17 22 17C19.7909 17 18 18.7909 18 21C18 21.7418 18.2019 22.4365 18.5538 23.032Z" fill="#4A4A4A"/>
</svg>
