<svg width="90" height="90" viewBox="0 0 90 90" fill="none" xmlns="http://www.w3.org/2000/svg">
<rect width="90" height="90" rx="45" fill="white"/>
<path d="M11.6051 60H5.98011L16.2216 30.9091H22.7273L32.983 60H27.358L19.5881 36.875H19.3608L11.6051 60ZM11.7898 48.5938H27.1307V52.8267H11.7898V48.5938ZM48.9555 38.9062C48.823 37.6657 48.2643 36.6998 47.2794 36.0085C46.304 35.3172 45.0351 34.9716 43.4726 34.9716C42.3741 34.9716 41.4319 35.1373 40.6459 35.4688C39.8599 35.8002 39.2586 36.25 38.8419 36.8182C38.4252 37.3864 38.2122 38.035 38.2027 38.7642C38.2027 39.3703 38.34 39.8958 38.6146 40.3409C38.8987 40.786 39.2822 41.1648 39.7652 41.4773C40.2482 41.7803 40.7832 42.036 41.3703 42.2443C41.9574 42.4527 42.5493 42.6278 43.1459 42.7699L45.8732 43.4517C46.9716 43.7074 48.0275 44.053 49.0408 44.4886C50.0635 44.9242 50.9773 45.4735 51.7822 46.1364C52.5966 46.7992 53.2406 47.5994 53.7141 48.5369C54.1875 49.4744 54.4243 50.5729 54.4243 51.8324C54.4243 53.5369 53.9887 55.0379 53.1175 56.3352C52.2463 57.6231 50.9868 58.6316 49.3391 59.3608C47.7008 60.0805 45.7169 60.4403 43.3874 60.4403C41.1241 60.4403 39.1591 60.09 37.4925 59.3892C35.8353 58.6884 34.5379 57.6657 33.6004 56.321C32.6724 54.9763 32.1705 53.3381 32.0947 51.4062H37.2794C37.3552 52.4195 37.6677 53.2623 38.2169 53.9347C38.7661 54.607 39.4811 55.1089 40.3618 55.4403C41.2519 55.7718 42.2463 55.9375 43.3447 55.9375C44.4906 55.9375 45.4944 55.767 46.3561 55.4261C47.2273 55.0758 47.9091 54.5928 48.4016 53.9773C48.894 53.3523 49.1449 52.6231 49.1544 51.7898C49.1449 51.0322 48.9224 50.4072 48.4868 49.9148C48.0512 49.4129 47.4404 48.9962 46.6544 48.6648C45.8779 48.3239 44.9688 48.0208 43.9271 47.7557L40.6175 46.9034C38.2216 46.2879 36.3277 45.3551 34.9357 44.1051C33.5531 42.8456 32.8618 41.1742 32.8618 39.0909C32.8618 37.3769 33.3258 35.8759 34.2538 34.5881C35.1913 33.3002 36.465 32.3011 38.0749 31.5909C39.6847 30.8712 41.5076 30.5114 43.5436 30.5114C45.608 30.5114 47.4167 30.8712 48.9697 31.5909C50.5322 32.3011 51.7586 33.2907 52.6487 34.5597C53.5389 35.8191 53.9982 37.268 54.0266 38.9062H48.9555ZM81.9168 45.4545C81.9168 48.589 81.3296 51.2737 80.1554 53.5085C78.9906 55.7339 77.3997 57.4384 75.3827 58.6222C73.3751 59.8059 71.0976 60.3977 68.5503 60.3977C66.0029 60.3977 63.7207 59.8059 61.7037 58.6222C59.6961 57.429 58.1052 55.7197 56.931 53.4943C55.7662 51.2595 55.1838 48.5795 55.1838 45.4545C55.1838 42.3201 55.7662 39.6402 56.931 37.4148C58.1052 35.1799 59.6961 33.4706 61.7037 32.2869C63.7207 31.1032 66.0029 30.5114 68.5503 30.5114C71.0976 30.5114 73.3751 31.1032 75.3827 32.2869C77.3997 33.4706 78.9906 35.1799 80.1554 37.4148C81.3296 39.6402 81.9168 42.3201 81.9168 45.4545ZM76.6185 45.4545C76.6185 43.2481 76.2728 41.3873 75.5815 39.8722C74.8997 38.3475 73.9527 37.197 72.7406 36.4205C71.5285 35.6345 70.1317 35.2415 68.5503 35.2415C66.9688 35.2415 65.5721 35.6345 64.3599 36.4205C63.1478 37.197 62.1961 38.3475 61.5048 39.8722C60.823 41.3873 60.4821 43.2481 60.4821 45.4545C60.4821 47.661 60.823 49.5265 61.5048 51.0511C62.1961 52.5663 63.1478 53.7169 64.3599 54.5028C65.5721 55.2794 66.9688 55.6676 68.5503 55.6676C70.1317 55.6676 71.5285 55.2794 72.7406 54.5028C73.9527 53.7169 74.8997 52.5663 75.5815 51.0511C76.2728 49.5265 76.6185 47.661 76.6185 45.4545Z" fill="black"/>
</svg>
